# xmcd
#
# Track frame offsets:
#	150
#	10672
#	23393
#	36096
#	50195
#	60826
#	72760
#	85509
#	96758
#	110572
#	125230
#	138701
#	150785
#	162663
#	176246
#	189292
#	203035
#	217391
#	229118
#	242158
#	253651
#	265060
#	278400
#	290362
#	300965
#	316994
#	327925
#
# Disc length: 4556 seconds
# Revision: 0
# Processed by: cddbd v1.5.2PL0 Copyright (c) Steve Scherf et al.
# Submitted via: dBpowerAMP V12.0
#
DISCID=7511ca1b
DTITLE=Freddie King - Freddie King Sings and Let's Hide Away and Dance Away
DYEAR=2013
DGENRE=Blues
TTITLE0=See See Baby
TTITLE1=Lonesome Whistle Blues
TTITLE2=Takin' Care Of Business
TTITLE3=Have You Ever Loved A Woman
TTITLE4=You Know That You Love Me
TTITLE5=I'm Tore Down
TTITLE6=I Love The Woman
TTITLE7=Let Me Be
TTITLE8=It's Too Bad That Things Are Going So Tough
TTITLE9=You've Got To Love Her With A Feeling
TTITLE10=If You Believe
TTITLE11=You Mean, Mean Woman
TTITLE12=Hide Away
TTITLE13=Butterscotch
TTITLE14=Sen-Sa-Shun
TTITLE15=Side Tracker
TTITLE16=The Stumble
TTITLE17=Wash Out
TTITLE18=San-Ho-Zay
TTITLE19=Just Pickin'
TTITLE20=Heads Up
TTITLE21=In The Open
TTITLE22=Out Front
TTITLE23=Swooshy
TTITLE24=Come On (bonus)
TTITLE25=Texas Oil (bonus)
TTITLE26=Sittin' On The Boat Dock (bonus)
EXTD=
EXTT0=
EXTT1=
EXTT2=
EXTT3=
EXTT4=
EXTT5=
EXTT6=
EXTT7=
EXTT8=
EXTT9=
EXTT10=
EXTT11=
EXTT12=
EXTT13=
EXTT14=
EXTT15=
EXTT16=
EXTT17=
EXTT18=
EXTT19=
EXTT20=
EXTT21=
EXTT22=
EXTT23=
EXTT24=
EXTT25=
EXTT26=
PLAYORDER=
